<svg width="52" height="23" viewBox="0 0 52 23" fill="none" xmlns="http://www.w3.org/2000/svg">
<path d="M5.32 22.5V15.635C6.125 16.615 7.805 17.385 10.045 17.385C14.91 17.385 18.34 13.57 18.34 8.25C18.34 3.035 15.54 0 10.5 0C8.015 0 5.88 0.269999 5.145 1.39V0H0L0 22.5H5.32ZM13.125 8.285C13.125 11.19 11.27 12.625 9.17 12.625C7.105 12.625 5.25 11.155 5.25 8.285C5.25 5.38 7.105 3.98 9.17 3.98C11.27 3.98 13.125 5.38 13.125 8.285Z" fill="#27F1C1"/>
<path d="M38.3748 3.8147e-06H32.7748L29.0648 10.42L25.0398 3.8147e-06H19.2648L26.4048 18H31.7598L38.3748 3.8147e-06Z" fill="#27F1C1"/>
<path d="M48.1376 0H43.3776C43.3776 0 42.5026 3.8147e-06 40.6826 3.8147e-06H39.8076V4.26H42.8876V12.39C42.8876 15.855 45.0926 17.99 48.6976 17.99C50.3776 17.99 51.2526 17.605 51.4626 17.5V13.09C51.1476 13.16 50.6226 13.265 50.0626 13.265C48.9076 13.265 48.1376 12.88 48.1376 11.445V4.26H51.5326V3.8147e-06L48.1376 0Z" fill="#27F1C1"/>
</svg>
